<?xml version="1.0" standalone="no"?>
<!DOCTYPE svg PUBLIC "-//W3C//DTD SVG 20010904//EN"
 "http://www.w3.org/TR/2001/REC-SVG-20010904/DTD/svg10.dtd">
<svg version="1.0" xmlns="http://www.w3.org/2000/svg"
 width="48.000000pt" height="48.000000pt" viewBox="0 0 48.000000 48.000000"
 preserveAspectRatio="xMidYMid meet">

<g transform="translate(0.000000,48.000000) scale(0.100000,-0.100000)"
fill="#333333" stroke="none">
<path d="M124 430 c-36 -14 -64 -59 -64 -101 0 -26 -7 -46 -20 -59 -25 -25
-25 -35 0 -60 13 -13 20 -33 20 -60 0 -49 40 -97 88 -106 28 -6 32 -4 32 14 0
15 -9 22 -30 27 -35 8 -50 31 -50 77 0 19 -7 44 -16 56 -14 20 -14 24 0 44 9
12 16 37 16 56 0 46 15 69 50 77 21 5 30 13 30 26 0 20 -20 24 -56 9z"/>
<path d="M300 422 c0 -15 9 -22 30 -27 35 -8 50 -31 50 -77 0 -19 7 -44 16
-56 14 -20 14 -24 0 -44 -9 -12 -16 -37 -16 -56 0 -46 -15 -69 -50 -77 -21 -5
-30 -12 -30 -27 0 -18 4 -20 33 -14 47 9 87 57 87 106 0 27 7 47 20 60 11 11
20 25 20 30 0 6 -9 19 -20 30 -13 13 -20 33 -20 60 0 49 -40 97 -87 106 -29 6
-33 4 -33 -14z"/>
</g>
</svg>
